<?xml version="1.0" encoding="utf-8"?>
<!-- Generator: Adobe Illustrator 19.0.0, SVG Export Plug-In . SVG Version: 6.00 Build 0)  -->
<!DOCTYPE svg PUBLIC "-//W3C//DTD SVG 1.1//EN" "http://www.w3.org/Graphics/SVG/1.1/DTD/svg11.dtd">
<svg version="1.1" xmlns="http://www.w3.org/2000/svg" xmlns:xlink="http://www.w3.org/1999/xlink" x="0px" y="0px"
	 viewBox="0 0 612 615" style="enable-background:new 0 0 612 615;" xml:space="preserve">
<style type="text/css">
	.st0{fill:url(#XMLID_18_);}
	.st1{fill:url(#XMLID_19_);}
	.st2{fill:url(#XMLID_20_);}
	.st3{fill:url(#XMLID_21_);}
	.st4{fill:url(#XMLID_22_);}
	.st5{fill:url(#XMLID_24_);}
	.st6{fill:url(#XMLID_25_);}
	.st7{fill:url(#XMLID_26_);}
	.st8{fill:url(#XMLID_27_);}
	.st9{fill:url(#XMLID_28_);}
	.st10{fill:url(#XMLID_29_);}
	.st11{fill:url(#XMLID_30_);}
	.st12{fill:url(#XMLID_31_);}
</style>
<g id="Layer_1">
</g>
<g id="Layer_2">
	<g id="XMLID_23_">
		<linearGradient id="XMLID_18_" gradientUnits="userSpaceOnUse" x1="305.5602" y1="610" x2="305.5602" y2="1">
			<stop  offset="0" style="stop-color:#000FA4"/>
			<stop  offset="1" style="stop-color:#001A94"/>
		</linearGradient>
		<path id="XMLID_53_" class="st0" d="M305.6,1C137.7,1,1.1,137.6,1.1,305.5C1.1,473.4,137.7,610,305.6,610
			c167.9,0,304.5-136.6,304.5-304.5C610.1,137.6,473.5,1,305.6,1z M305.6,607.7C138.9,607.7,3.4,472.1,3.4,305.5
			S138.9,3.3,305.6,3.3s302.2,135.5,302.2,302.2S472.2,607.7,305.6,607.7z"/>
		<linearGradient id="XMLID_19_" gradientUnits="userSpaceOnUse" x1="305.5603" y1="596.3535" x2="305.5603" y2="14.6458">
			<stop  offset="0" style="stop-color:#000FA4"/>
			<stop  offset="1" style="stop-color:#001A94"/>
		</linearGradient>
		<path id="XMLID_56_" class="st1" d="M305.6,14.6c-160.6,0-290.9,130.2-290.9,290.9c0,160.6,130.2,290.9,290.9,290.9
			s290.9-130.2,290.9-290.9C596.4,144.9,466.2,14.6,305.6,14.6z M305.6,531.6c-124.9,0-226.1-101.2-226.1-226.1
			c0-124.9,101.2-226.1,226.1-226.1c124.9,0,226.1,101.2,226.1,226.1C531.7,430.4,430.5,531.6,305.6,531.6z"/>
		<linearGradient id="XMLID_20_" gradientUnits="userSpaceOnUse" x1="305.5602" y1="517.2067" x2="305.5602" y2="93.7921">
			<stop  offset="0" style="stop-color:#000FA4"/>
			<stop  offset="1" style="stop-color:#001A94"/>
		</linearGradient>
		<path id="XMLID_59_" class="st2" d="M305.6,93.8c-116.7,0-211.7,95-211.7,211.7s95,211.7,211.7,211.7
			c116.7,0,211.7-95,211.7-211.7S422.3,93.8,305.6,93.8z M305.6,514.9c-115.4,0-209.4-93.9-209.4-209.4S190.1,96.1,305.6,96.1
			c115.4,0,209.4,93.9,209.4,209.4S421,514.9,305.6,514.9z"/>
		<linearGradient id="XMLID_21_" gradientUnits="userSpaceOnUse" x1="305.5602" y1="502.0015" x2="305.5602" y2="108.9979">
			<stop  offset="0" style="stop-color:#000FA4"/>
			<stop  offset="1" style="stop-color:#001A94"/>
		</linearGradient>
		<path id="XMLID_62_" class="st3" d="M305.6,109c-108.5,0-196.5,88-196.5,196.5C109.1,414,197,502,305.6,502
			c108.5,0,196.5-88,196.5-196.5C502.1,197,414.1,109,305.6,109z M305.6,486.4c-99.9,0-180.9-81-180.9-180.9s81-180.9,180.9-180.9
			s180.9,81,180.9,180.9S405.5,486.4,305.6,486.4z"/>
		<linearGradient id="XMLID_22_" gradientUnits="userSpaceOnUse" x1="305.5602" y1="348.0296" x2="305.5602" y2="338.9648">
			<stop  offset="0" style="stop-color:#000FA4"/>
			<stop  offset="1" style="stop-color:#001A94"/>
		</linearGradient>
		<path id="XMLID_63_" class="st4" d="M443.3,339H167.8c-1.9,0-3.5,2-3.5,4.5c0,2.5,1.6,4.5,3.5,4.5h275.5c1.9,0,3.5-2,3.5-4.5
			C446.8,341,445.2,339,443.3,339z"/>
		<linearGradient id="XMLID_24_" gradientUnits="userSpaceOnUse" x1="305.5602" y1="368.2061" x2="305.5602" y2="358.8489">
			<stop  offset="0" style="stop-color:#000FA4"/>
			<stop  offset="1" style="stop-color:#001A94"/>
		</linearGradient>
		<path id="XMLID_64_" class="st5" d="M412.6,358.8h-214c-2.6,0-4.7,2.1-4.7,4.7c0,2.6,2.1,4.7,4.7,4.7h214c2.6,0,4.7-2.1,4.7-4.7
			C417.3,361,415.2,358.8,412.6,358.8z"/>
		<linearGradient id="XMLID_25_" gradientUnits="userSpaceOnUse" x1="273.6872" y1="348.322" x2="273.6872" y2="338.9648">
			<stop  offset="0" style="stop-color:#000FA4"/>
			<stop  offset="1" style="stop-color:#001A94"/>
		</linearGradient>
		<path id="XMLID_5_" class="st6" d="M380.7,339h-214c-2.6,0-4.7,2.1-4.7,4.7c0,2.6,2.1,4.7,4.7,4.7h214c2.6,0,4.7-2.1,4.7-4.7
			C385.4,341.1,383.3,339,380.7,339z"/>
		<linearGradient id="XMLID_26_" gradientUnits="userSpaceOnUse" x1="337.4333" y1="348.1758" x2="337.4333" y2="338.8186">
			<stop  offset="0" style="stop-color:#000FA4"/>
			<stop  offset="1" style="stop-color:#001A94"/>
		</linearGradient>
		<path id="XMLID_6_" class="st7" d="M444.5,338.8h-214c-2.6,0-4.7,2.1-4.7,4.7c0,2.6,2.1,4.7,4.7,4.7h214c2.6,0,4.7-2.1,4.7-4.7
			C449.1,340.9,447,338.8,444.5,338.8z"/>
		<linearGradient id="XMLID_27_" gradientUnits="userSpaceOnUse" x1="161.1968" y1="317.4046" x2="161.1968" y2="248.1202">
			<stop  offset="0" style="stop-color:#000FA4"/>
			<stop  offset="1" style="stop-color:#001A94"/>
		</linearGradient>
		<path id="XMLID_68_" class="st8" d="M171.9,292.2c-1.4-2-3.1-3.6-5.2-4.5c8-3.4,13.7-8.8,16.8-12.8c3.7-4.7,5.7-10.8,3.8-18
			c-1.9-7.3-7.2-9-12.7-8.7c-7.2,0.4-16.9,5.7-24.4,6.4c-1.3,0.1-1.6,0.6-1.1,1.8c0.8,1.7,3,4.1,7.3,4.3
			c-8.1,12.1-16.3,27.8-20.6,39.8c-2.5,6.9-1.4,8.6,0.2,11c1.4,2,3.3,3.9,5.5,5c2.4,1.2,5,1.3,9,0.5c6-1.1,14.1-4.8,18.8-10
			C174,301.9,174.1,295.5,171.9,292.2z M159.8,270.1c2.7-5,3.4-8.2,3.2-10.5c7.4-2.4,18.1-7.3,20.2-1.7c2.7,7.3-10.5,21.8-31.9,26.8
			C154.6,279.2,157.7,274.1,159.8,270.1z M165.5,300.4c-4.6,5.7-13.9,10.1-20.8,11c-3.4,0.4-4.6-0.9-3.4-4.6
			c1.6-5.4,4.3-11.1,7.2-16.7c1.5,0.8,3.7,1.1,6.7,0.8c1.5-0.2,3-0.4,4.5-0.8C169.5,290.6,169.5,295.4,165.5,300.4z"/>
		<linearGradient id="XMLID_28_" gradientUnits="userSpaceOnUse" x1="232.5092" y1="317.5729" x2="232.5092" y2="248.9615">
			<stop  offset="0" style="stop-color:#000FA4"/>
			<stop  offset="1" style="stop-color:#001A94"/>
		</linearGradient>
		<path id="XMLID_72_" class="st9" d="M190.3,317c4.4,0.1,8.5-2.1,11.8-4.8c0.8,2.6,2.8,4.5,6.3,4.8c6,0.4,11.7-5.1,15.5-10.1
			c-0.9,6.2,1.9,10.7,8.9,10.7c5.6,0,11.4-4.2,14.8-9.3c1.8,5.5,6.5,9.2,13.7,9.1c8.3-0.1,16.6-5.1,21.1-11.6
			c1.9-2.8,2.3-5.8,1.8-6.7c-0.4-1-1.3-1-1.8-0.1c-4.6,7.1-12.5,15.7-21.4,15.3c-5.7-0.3-8.3-7.1-4.8-17c7.5,6.1,14.7,3.3,20-3.1
			c4.5-5.5,5.4-12.1,3.4-14.6c-1.7-2.4-3.7-4-6.4-5.6c-5.4-3.1-16.4,2.5-23.4,16.4c-2,3.9-3,7.7-3.1,11.2c-4,6.7-8.9,12.6-13,12.8
			c-3.9,0.2-4.3-4.3-1.5-10.4c2.5-5.5,7.9-13.6,10.2-18.4c2.6-5.4,1.7-10.1,0.1-12.1c-0.9-1.1-1.6-0.9-2.7,0.6
			c-3.4,4.6-6.6,12.1-13.3,23c-5.8,9.4-11.7,16.9-15.9,16.6c-2.5-0.2-2.8-4.1-0.5-9.4c2.3-5.2,4.4-9.5,8.4-15.8
			c3.9-6.1,4.4-11,2-14.5c-0.9-1-1.9-1.1-2.8,0.1c-7,9.8-12.5,20.3-14.9,27.4c-0.6,1.7-1,3.3-1.2,5c-3.8,4.6-8.2,7.9-11.6,7.6
			c-4.8-0.4-3.7-9.4,0.6-19.9c9.6-6.2,21.6-19.2,25-32.4c1.3-5.1,0.6-9-2.5-11.8c-1.5-1.4-3-1.2-4.6,0.5
			c-11,11.4-23.2,30.9-27.2,49.6C178.9,311.7,182.9,316.8,190.3,317z M258,293c5.1-10.2,14-16.7,16.2-14.9c1.5,1.2-0.9,6.8-4.3,11.3
			c-3.1,4.1-7.5,8.7-12.8,5.4C257.3,294.3,257.6,293.7,258,293z M195.2,284.3c7.4-13.8,15.4-25.7,16.8-24.9
			c1.4,0.9-4.6,18.1-19.4,30C193.4,287.8,194.3,286,195.2,284.3z"/>
		<linearGradient id="XMLID_29_" gradientUnits="userSpaceOnUse" x1="331.1843" y1="316.8108" x2="331.1843" y2="248.5712">
			<stop  offset="0" style="stop-color:#000FA4"/>
			<stop  offset="1" style="stop-color:#001A94"/>
		</linearGradient>
		<path id="XMLID_76_" class="st10" d="M306.9,316c3.8-8.9,7-16,10-22c1.8,1.1,4.2,1.5,6.7,1.1c14.1-2.7,25.7-10.8,31.1-19.2
			c3.7-5.7,5.5-11.9,3.2-18.4c-2.6-7.4-7.3-9.1-12.8-8.9c-7.3,0.3-15.4,4.8-24.3,5.8c-1.4,0.1-1.6,0.8-1.1,1.9
			c1.1,2.3,3.1,4.1,6.8,4.5c-9.4,14.7-19.5,35-22.3,44.8c-1.6,5.8-0.5,9,1,10.7C306,317,306.5,317,306.9,316z M329.1,272.1
			c3-5.2,4.1-8.9,4.1-11.8c7.1-2,17.9-7.6,20.1-1.7c2.9,7.5-9.1,25-33.3,29.5C323.3,282,326.3,277,329.1,272.1z"/>
		<linearGradient id="XMLID_30_" gradientUnits="userSpaceOnUse" x1="414.0948" y1="317.5855" x2="414.0948" y2="248.9615">
			<stop  offset="0" style="stop-color:#000FA4"/>
			<stop  offset="1" style="stop-color:#001A94"/>
		</linearGradient>
		<path id="XMLID_79_" class="st11" d="M477.5,299.1c-0.4-1-1.3-1-1.8-0.1c-4.6,7.1-12.5,15.7-21.4,15.3c-5.7-0.3-8.3-7.1-4.8-17
			c7.5,6.1,14.7,3.3,20-3.1c4.5-5.5,5.4-12.1,3.4-14.6c-1.7-2.4-3.7-4-6.4-5.6c-5.4-3.1-16.4,2.5-23.4,16.4
			c-2.8,5.5-3.7,10.9-2.9,15.5c-3.5,5-7.5,8.8-10.9,8.6c-4.5-0.2-5.7-6.9-2.2-14.7c4.1-9,10.2-19.5,14.4-26.7c2.7-0.4,6-0.8,8.4-0.4
			c1.6,0,2-0.8,1.3-2c-0.9-1.4-2.5-3.3-6.7-3.2c2.6-5.6,2.6-9.1,1.4-12.2c-0.5-1.3-1.6-1.4-2.6,0c-1.8,2.4-4.8,7.4-8.2,13.3
			c-2.9,0.3-5.9,0.5-8.9,0.4c-1.6-0.1-2.3,0.6-1.2,2.2c0.9,1.2,3.3,2.8,7,2.8c-4.6,8.5-9.1,17.5-11.4,22.9c-0.9,2.1-1.4,4.1-1.7,5.9
			c-3.7,6.2-8.6,11.6-12.4,11.8c-3.7,0.2-3.6-4.4-0.9-10.4c2.6-5.7,8-13.8,10.3-18.6c2.6-5.4,1.7-10,0.1-11.9
			c-0.8-1-1.6-0.8-2.6,0.6c-1.2,1.7-2.5,4-3.9,6.6c0.2-4.2-1.9-7.7-6.6-7.7c-5.4,0-13.9,4.8-22.6,17.5c-2.3,3.4-3.9,6.8-4.8,10
			c-4.3,7.5-11,14-15.8,13.6c-4.8-0.4-3.7-9.4,0.6-19.9c9.6-6.2,21.6-19.2,25-32.4c1.3-5.1,0.6-9-2.5-11.8c-1.5-1.4-3-1.2-4.6,0.5
			c-11,11.4-23.2,30.9-27.2,49.6c-2.5,11.6,1.5,16.8,8.9,17c5.9,0.1,11.5-4.1,14.9-7.7c0.8,4.7,3.8,7.9,8.5,7.9c5.2,0,10-4,13.5-8.4
			c0,5.1,3,8.5,8.8,8.8c4.7,0.3,9.9-3.4,13.3-7.9c1.3,4.7,5,7.5,9.1,7.6c5.4,0.2,10.2-3.4,13.4-7c2.2,4.4,6.6,7.2,12.9,7.1
			c8.3-0.1,16.6-5.1,21.1-11.6C477.6,302.9,477.9,299.9,477.5,299.1z M451.2,293c5.1-10.2,14-16.7,16.2-14.9
			c1.5,1.2-0.9,6.8-4.3,11.3c-3.1,4.1-7.5,8.7-12.8,5.4C450.6,294.3,450.9,293.7,451.2,293z M365.1,284.3
			c7.4-13.8,15.4-25.7,16.8-24.9c1.4,0.9-4.6,18.1-19.4,30C363.3,287.8,364.2,286,365.1,284.3z M384.8,313.6
			c-4.2-0.1-2.8-9.6,2.9-18.8c5.9-9.6,13.8-16.6,17.2-16.3c3.1,0.3,2.2,7-4.6,18.8C394.8,306.8,389.3,313.7,384.8,313.6z"/>
	</g>
</g>
<g id="Layer_3">
	<linearGradient id="XMLID_31_" gradientUnits="userSpaceOnUse" x1="305.5602" y1="378.1482" x2="305.5602" y2="388.675">
		<stop  offset="0" style="stop-color:#0900F8"/>
		<stop  offset="1" style="stop-color:#0007A9"/>
	</linearGradient>
	<path id="XMLID_3_" class="st12" d="M376.6,378.1H234.5c-2.9,0-5.3,2.4-5.3,5.3c0,2.9,2.4,5.3,5.3,5.3h142.1c2.9,0,5.3-2.4,5.3-5.3
		C381.9,380.5,379.5,378.1,376.6,378.1z"/>
</g>
</svg>
